<svg xmlns="http://www.w3.org/2000/svg" viewBox="0 0 64 64">
  <defs>
    <mask id="glider-holes">
      <path d="M32 5 C20.7 5 12 13.7 12 25 C12 39.5 32 58 32 58 C32 58 52 39.5 52 25 C52 13.7 43.3 5 32 5 Z" fill="white"/>
      <rect x="28.6" y="11.8" width="6.8" height="6.8" rx="1.4" fill="black"/>
      <rect x="37.6" y="20.8" width="6.8" height="6.8" rx="1.4" fill="black"/>
      <rect x="19.6" y="29.8" width="6.8" height="6.8" rx="1.4" fill="black"/>
      <rect x="28.6" y="29.8" width="6.8" height="6.8" rx="1.4" fill="black"/>
      <rect x="37.6" y="29.8" width="6.8" height="6.8" rx="1.4" fill="black"/>
    </mask>
  </defs>
  <path d="M32 5 C20.7 5 12 13.7 12 25 C12 39.5 32 58 32 58 C32 58 52 39.5 52 25 C52 13.7 43.3 5 32 5 Z" fill="#20CFC6" mask="url(#glider-holes)"/>
</svg>
